<?xml version="1.0" encoding="utf-8"?>
<svg version="1.1" id="Layer_1" xmlns="http://www.w3.org/2000/svg" xmlns:xlink="http://www.w3.org/1999/xlink" x="0px" y="0px"
	 viewBox="0 0 43 43" enable-background="new 0 0 43 43" xml:space="preserve">
<g>
	<path fill="#EEEEEE" d="M12,43c-0.4,0-0.8-0.4-0.8-0.8V2.8C11.2,2.4,11.6,2,12,2h21c0.4,0,0.8,0.4,0.8,0.8v39.4
		c0,0.4-0.4,0.8-0.8,0.8H12z"/>
	<g>
		<g>
			<path fill="#2A3333" d="M10,41c-0.4,0-0.8-0.4-0.8-0.8V0.8C9.2,0.4,9.6,0,10,0h21c0.4,0,0.8,0.4,0.8,0.8v39.4
				c0,0.4-0.4,0.8-0.8,0.8H10z M10.8,39.4h19.4V1.6H10.8V39.4z"/>
			<path fill="#2A3333" d="M19.8,35.8c-0.4,0-0.8-0.4-0.8-0.8s0.4-0.8,0.8-0.8h1.3c0.4,0,0.8,0.4,0.8,0.8s-0.4,0.8-0.8,0.8H19.8z"/>
			<path fill="#2A3333" d="M15.9,6.9c-0.4,0-0.8-0.4-0.8-0.8s0.4-0.8,0.8-0.8h9.2c0.4,0,0.8,0.4,0.8,0.8s-0.4,0.8-0.8,0.8H15.9z"/>
		</g>
	</g>
</g>
</svg>
