<?xml version="1.0" encoding="utf-8"?>
<svg version="1.1" id="Layer_1" xmlns="http://www.w3.org/2000/svg" xmlns:xlink="http://www.w3.org/1999/xlink" x="0px" y="0px"
	 viewBox="0 0 43 43" enable-background="new 0 0 43 43" xml:space="preserve">
<g>
	<path fill="#EEEEEE" d="M2.8,39.7c-0.4,0-0.8-0.4-0.8-0.8V6.1c0-0.4,0.4-0.8,0.8-0.8h39.4c0.4,0,0.8,0.4,0.8,0.8v32.8
		c0,0.4-0.4,0.8-0.8,0.8H2.8z"/>
	<g>
		<g>
			<g>
				<path fill="#2A3333" d="M0.8,37.7c-0.4,0-0.8-0.4-0.8-0.8V4.1c0-0.4,0.4-0.8,0.8-0.8h39.4c0.4,0,0.8,0.4,0.8,0.8v32.8
					c0,0.4-0.4,0.8-0.8,0.8H0.8z M1.6,36.1h37.7V12.8H1.6V36.1z M1.6,11.2h37.7V4.9H1.6V11.2z"/>
				<path fill="#2A3333" d="M6.1,18c-0.4,0-0.8-0.4-0.8-0.8s0.4-0.8,0.8-0.8h28.9c0.4,0,0.8,0.4,0.8,0.8S35.4,18,34.9,18H6.1z"/>
				<path fill="#2A3333" d="M6.1,23.3c-0.4,0-0.8-0.4-0.8-0.8s0.4-0.8,0.8-0.8h28.9c0.4,0,0.8,0.4,0.8,0.8s-0.4,0.8-0.8,0.8H6.1z"/>
				<path fill="#2A3333" d="M6.1,28.5c-0.4,0-0.8-0.4-0.8-0.8s0.4-0.8,0.8-0.8h28.9c0.4,0,0.8,0.4,0.8,0.8s-0.4,0.8-0.8,0.8H6.1z"/>
			</g>
		</g>
		<g>
			<circle fill="#2A3333" cx="6.1" cy="8" r="0.9"/>
			<circle fill="#2A3333" cx="10" cy="8" r="0.9"/>
			<circle fill="#2A3333" cx="13.9" cy="8" r="0.9"/>
		</g>
	</g>
</g>
</svg>
