<?xml version="1.0" encoding="utf-8"?>
<svg version="1.1" id="Layer_1" xmlns="http://www.w3.org/2000/svg" xmlns:xlink="http://www.w3.org/1999/xlink" x="0px" y="0px"
	 viewBox="0 0 43 43" enable-background="new 0 0 43 43" xml:space="preserve">
<g>
	<g>
		<path fill="#EEEEEE" d="M11.2,32.2l0.7-0.5c0.8-0.6,1.7-0.9,2.7-0.9c2.2,0,4,1.5,4.6,3.6l0.1,0.4h6.4l0.1-0.4
			c0.5-2.1,2.4-3.6,4.6-3.6c2.6,0,4.8,2.1,4.8,4.8s-2.1,4.8-4.8,4.8c-2.2,0-4-1.5-4.6-3.6l-0.1-0.4h-6.4l-0.1,0.4
			c-0.5,2.1-2.4,3.6-4.6,3.6c-2.6,0-4.5-1.8-4.7-4.6L7.3,6.2H2.8C2.4,6.2,2,5.9,2,5.4s0.4-0.8,0.8-0.8h5.2c0.4,0,0.8,0.3,0.8,0.7
			l0.4,4.5h32.9c0.3,0,0.5,0.1,0.6,0.3c0.2,0.2,0.2,0.5,0.1,0.7L39,24.7c-0.1,0.3-0.4,0.6-0.7,0.6l-27.6,1.3L11.2,32.2z"/>
	</g>
	<g>
		<g>
			<path fill="#2A3333" d="M9.2,30.2l0.7-0.5c0.8-0.6,1.7-0.9,2.7-0.9c2.2,0,4,1.5,4.6,3.6l0.1,0.4h6.4l0.1-0.4
				c0.5-2.1,2.4-3.6,4.6-3.6c2.6,0,4.8,2.1,4.8,4.8s-2.1,4.8-4.8,4.8c-2.2,0-4-1.5-4.6-3.6l-0.1-0.4h-6.4l-0.1,0.4
				c-0.5,2.1-2.4,3.6-4.6,3.6c-2.6,0-4.5-1.8-4.7-4.6L5.3,4.2H0.8C0.4,4.2,0,3.9,0,3.4s0.4-0.8,0.8-0.8h5.2c0.4,0,0.8,0.3,0.8,0.7
				l0.4,4.5h32.9c0.3,0,0.5,0.1,0.6,0.3C41,8.4,41,8.7,41,8.9L37,22.7c-0.1,0.3-0.4,0.6-0.7,0.6L8.7,24.6L9.2,30.2z M28.4,30.5
				c-1.7,0-3.1,1.4-3.1,3.1s1.4,3.1,3.1,3.1s3.1-1.4,3.1-3.1S30.1,30.5,28.4,30.5z M12.6,30.5c-1.7,0-3.1,1.4-3.1,3.1
				s1.4,3.1,3.1,3.1s3.1-1.4,3.1-3.1S14.3,30.5,12.6,30.5z M35.6,21.7l3.5-12.2H7.4L8.6,23L35.6,21.7z"/>
		</g>
	</g>
</g>
</svg>
