<?xml version="1.0" encoding="utf-8"?>
<svg version="1.1" id="Layer_1" xmlns="http://www.w3.org/2000/svg" xmlns:xlink="http://www.w3.org/1999/xlink" x="0px" y="0px"
	 viewBox="0 0 43 43" enable-background="new 0 0 43 43" xml:space="preserve">
<g>
	<path fill="#EEEEEE" d="M2.8,39.1c-0.4,0-0.8-0.4-0.8-0.8V12c0-0.4,0.4-0.8,0.8-0.8h4.4V6.8c0-0.4,0.4-0.8,0.8-0.8h34.1
		c0.4,0,0.8,0.4,0.8,0.8V33c0,0.4-0.4,0.8-0.8,0.8h-4.4v4.4c0,0.4-0.4,0.8-0.8,0.8H2.8z"/>
	<g>
		<g>
			<path fill="#2A3333" d="M0.8,37.1c-0.4,0-0.8-0.4-0.8-0.8V10c0-0.4,0.4-0.8,0.8-0.8h4.4V4.8c0-0.4,0.4-0.8,0.8-0.8h34.1
				c0.4,0,0.8,0.4,0.8,0.8V31c0,0.4-0.4,0.8-0.8,0.8h-4.4v4.4c0,0.4-0.4,0.8-0.8,0.8H0.8z M1.6,30v5.4h32.6l-8.6-7.4l-6.1,3.6
				c-0.1,0.1-0.3,0.1-0.4,0.1c-0.2,0-0.5-0.1-0.6-0.3L10,21.7L1.6,30z M25.7,26.2c0.2,0,0.4,0.1,0.5,0.2l7.8,6.7V10.8H1.6v16.9
				l7.8-7.8c0.2-0.2,0.4-0.2,0.6-0.2c0.2,0,0.5,0.1,0.6,0.3l8.7,10l6-3.6C25.5,26.3,25.6,26.2,25.7,26.2z M6.9,9.2h28.1
				c0.4,0,0.8,0.4,0.8,0.8v20.2h3.6V5.6H6.9V9.2z"/>
			<path fill="#2A3333" d="M26.4,22.6c-2.3,0-4.1-1.8-4.1-4.1s1.8-4.1,4.1-4.1s4.1,1.8,4.1,4.1S28.7,22.6,26.4,22.6z M26.4,16.1
				c-1.4,0-2.5,1.1-2.5,2.5S25,21,26.4,21s2.5-1.1,2.5-2.5S27.8,16.1,26.4,16.1z"/>
		</g>
	</g>
</g>
</svg>
