<?xml version="1.0" encoding="utf-8"?>
<svg version="1.1" id="Layer_1" xmlns="http://www.w3.org/2000/svg" xmlns:xlink="http://www.w3.org/1999/xlink" x="0px" y="0px"
	 viewBox="0 0 43 43" enable-background="new 0 0 43 43" xml:space="preserve">
<g>
	<g>
		<path fill="#EEEEEE" d="M22.5,33.2C9.1,33.2,2.4,23.5,2.2,23c-0.2-0.3-0.2-0.8,0-1.1c0.3-0.4,7-10.2,20.3-10.2
			c13.4,0,20.1,9.8,20.3,10.2c0.2,0.3,0.2,0.8,0,1.1C42.6,23.5,35.9,33.2,22.5,33.2z"/>
	</g>
	<g>
		<path fill="#2A3333" d="M20.5,31.2C7.1,31.2,0.4,21.5,0.2,21c-0.2-0.3-0.2-0.8,0-1.1c0.3-0.4,7-10.2,20.3-10.2
			c13.4,0,20.1,9.8,20.3,10.2c0.2,0.3,0.2,0.8,0,1.1C40.6,21.5,33.9,31.2,20.5,31.2z M20.5,11.7c-10.4,0-16.5,6.6-18.1,8.6l-0.2,0.2
			l0.2,0.2c1.6,2,7.8,8.6,18.1,8.6c10.4,0,16.5-6.6,18.1-8.6l0.2-0.2l-0.2-0.2C37,18.3,30.8,11.7,20.5,11.7z"/>
		<path fill="#2A3333" d="M20.5,26c-3,0-5.5-2.5-5.5-5.5s2.5-5.5,5.5-5.5s5.5,2.5,5.5,5.5S23.5,26,20.5,26z M20.5,16.9
			c-2,0-3.6,1.6-3.6,3.6s1.6,3.6,3.6,3.6s3.6-1.6,3.6-3.6S22.5,16.9,20.5,16.9z"/>
	</g>
</g>
</svg>
