<?xml version="1.0" encoding="utf-8"?>
<svg version="1.1" id="Layer_1" xmlns="http://www.w3.org/2000/svg" xmlns:xlink="http://www.w3.org/1999/xlink" x="0px" y="0px"
	 viewBox="0 0 43 43" enable-background="new 0 0 43 43" xml:space="preserve">
<g>
	<path fill="#EEEEEE" d="M2.8,39.7c-0.4,0-0.8-0.4-0.8-0.8V6.1c0-0.4,0.4-0.8,0.8-0.8h39.4c0.4,0,0.8,0.4,0.8,0.8v32.8
		c0,0.4-0.4,0.8-0.8,0.8C42.2,39.7,2.8,39.7,2.8,39.7z"/>
	<g>
		<path fill="#2A3333" d="M0.8,37.7c-0.4,0-0.8-0.4-0.8-0.8V4.1c0-0.4,0.4-0.8,0.8-0.8h39.4c0.4,0,0.8,0.4,0.8,0.8v32.8
			c0,0.4-0.4,0.8-0.8,0.8C40.2,37.7,0.8,37.7,0.8,37.7z M1.6,36.1h37.8V12.8H1.6V36.1z M1.6,11.2h37.8V4.9H1.6V11.2z"/>
		<path fill="#2A3333" d="M6.1,18c-0.4,0-0.8-0.4-0.8-0.8s0.4-0.8,0.8-0.8h13.8c0.4,0,0.8,0.4,0.8,0.8S20.3,18,19.8,18H6.1z"/>
		<path fill="#2A3333" d="M6.1,23.3c-0.4,0-0.8-0.4-0.8-0.8s0.4-0.8,0.8-0.8h13.8c0.4,0,0.8,0.4,0.8,0.8s-0.4,0.8-0.8,0.8H6.1z"/>
		<path fill="#2A3333" d="M6.1,28.5c-0.4,0-0.8-0.4-0.8-0.8s0.4-0.8,0.8-0.8h13.8c0.4,0,0.8,0.4,0.8,0.8s-0.4,0.8-0.8,0.8H6.1z"/>
		<path fill="#2A3333" d="M25.1,28.5c-0.4,0-0.8-0.4-0.8-0.8V17.2c0-0.4,0.4-0.8,0.8-0.8h9.8c0.4,0,0.8,0.4,0.8,0.8v10.5
			c0,0.4-0.4,0.8-0.8,0.8H25.1z M25.9,26.9h8.2V18h-8.2C25.9,18,25.9,26.9,25.9,26.9z"/>
		<g>
			<circle fill="#2A3333" cx="6.1" cy="8" r="0.9"/>
			<circle fill="#2A3333" cx="10" cy="8" r="0.9"/>
			<circle fill="#2A3333" cx="13.9" cy="8" r="0.9"/>
		</g>
	</g>
</g>
</svg>
